<!DOCTYPE svg PUBLIC "-//W3C//DTD SVG 20010904//EN" "http://www.w3.org/TR/2001/REC-SVG-20010904/DTD/svg10.dtd">
<svg version="1.0" xmlns="http://www.w3.org/2000/svg" width="850px" height="850px" viewBox="0 0 8500 8500" preserveAspectRatio="xMidYMid meet">
<g id="layer1" fill="#ffffff" stroke="none">
 <path d="M4165 7770 c-6 -10 -33 -11 -114 -7 -162 10 -363 -15 -627 -78 -574 -137 -1114 -423 -1549 -823 l-68 -62 27 -68 c15 -37 65 -150 110 -252 l81 -185 38 -3 c21 -2 37 -8 37 -16 0 -7 6 -20 12 -29 12 -16 25 -9 141 73 84 60 127 97 127 109 0 14 10 20 38 25 33 5 54 25 197 188 88 100 168 192 178 204 17 22 17 23 -85 103 -57 45 -108 81 -115 81 -9 0 -13 15 -13 45 0 25 0 48 0 53 0 4 10 8 22 10 17 2 47 -20 113 -82 l89 -85 66 -3 65 -3 3 -52 c3 -50 6 -55 60 -103 31 -27 59 -50 63 -50 4 0 22 20 40 44 l34 45 142 -6 143 -6 87 84 c235 226 514 342 858 356 485 20 973 -186 1389 -587 l101 -98 108 130 c95 116 107 135 107 169 0 37 2 39 30 39 l30 0 0 -69 c0 -61 -2 -69 -21 -74 -12 -3 -18 -10 -15 -15 3 -5 -37 -65 -88 -133 l-95 -123 38 -45 c60 -74 133 -177 224 -317 66 -102 108 -154 193 -237 l109 -107 66 0 c50 0 70 4 82 18 9 9 79 179 157 376 l140 358 -95 103 c-171 185 -421 396 -639 540 -448 294 -940 477 -1486 550 -162 22 -524 32 -535 15z"/>
 <path d="M4300 7135 c-203 -32 -340 -102 -486 -249 -65 -66 -90 -101 -133 -184 -29 -56 -59 -124 -67 -150 -21 -68 -44 -226 -44 -306 0 -237 114 -572 281 -826 153 -233 463 -482 694 -559 309 -102 625 -106 917 -10 372 121 547 380 565 834 14 347 -96 620 -357 889 -307 316 -734 528 -1140 565 -134 13 -121 13 -230 -4z"/>
 <path d="M2735 6667 c-44 -45 -117 -123 -163 -173 l-82 -92 157 -151 c86 -83 163 -151 170 -151 7 0 17 10 24 23 23 45 92 107 120 107 32 0 48 18 88 98 32 63 33 82 5 82 -11 0 -14 25 -14 139 l0 139 -37 28 c-33 25 -47 29 -113 31 l-75 2 -80 -82z"/>
 <path d="M1640 6628 c-63 -69 -128 -147 -198 -236 l-34 -42 238 -116 c130 -63 244 -113 253 -112 11 3 16 14 15 38 -2 40 -184 532 -199 537 -5 1 -39 -30 -75 -69z"/>
 <path d="M6959 6453 c-13 -35 -126 -349 -169 -471 -19 -54 -29 -96 -24 -101 5 -5 87 51 189 129 l180 138 6 59 c4 42 2 65 -9 83 -29 48 -143 190 -153 190 -5 0 -14 -12 -20 -27z"/>
 <path d="M2439 6298 c-7 -13 -14 -55 -17 -95 -5 -84 -19 -103 -57 -83 -43 23 -91 0 -175 -85 l-74 -75 -4 -321 c-3 -196 -1 -324 5 -330 6 -6 113 65 294 194 248 178 284 208 287 233 4 29 56 74 87 74 8 0 19 9 25 19 11 21 14 139 4 165 -7 19 -340 326 -354 326 -5 0 -15 -10 -21 -22z"/>
 <path d="M1296 6188 c-90 -137 -148 -242 -139 -251 3 -4 15 -7 26 -7 15 0 18 -5 13 -22 -4 -13 -8 -29 -9 -37 -2 -16 613 -531 626 -524 4 2 7 42 7 88 l0 84 68 3 67 3 3 166 c2 155 1 167 -18 184 -16 14 -20 31 -20 77 0 53 -3 62 -30 86 -16 15 -44 35 -62 44 -211 106 -439 218 -447 218 -6 0 -44 -51 -85 -112z"/>
 <path d="M7200 6100 c-12 -16 -30 -30 -41 -30 -11 0 -119 -75 -238 -166 l-218 -167 -5 -123 c-3 -68 -10 -129 -16 -136 -7 -9 55 -432 228 -1543 131 -841 242 -1544 245 -1562 4 -18 15 -39 25 -48 22 -20 28 -12 104 114 246 412 403 864 472 1361 24 179 30 610 10 797 -50 468 -168 868 -376 1269 -86 166 -145 264 -159 264 -5 0 -19 -13 -31 -30z"/>
 <path d="M6167 5973 c-10 -9 -9 -50 2 -71 5 -9 12 -25 15 -34 3 -12 15 -18 34 -18 16 0 44 -5 61 -11 61 -21 55 4 -18 74 -67 65 -81 74 -94 60z"/>
 <path d="M2803 5808 c-4 -7 -6 -42 -4 -78 2 -36 4 -76 5 -90 2 -51 30 -25 64 60 l34 84 -22 18 c-26 21 -65 24 -77 6z"/>
 <path d="M1051 5751 c-74 -144 -180 -445 -231 -654 -75 -303 -95 -486 -95 -847 0 -299 7 -392 46 -615 104 -599 367 -1165 766 -1645 112 -134 341 -363 463 -461 l95 -77 290 7 290 6 0 30 c0 21 -7 33 -25 42 -34 17 -60 51 -60 79 0 19 -40 53 -213 182 l-212 159 -80 -1 c-65 -1 -88 4 -122 22 -95 50 -125 165 -61 237 17 20 48 45 68 55 24 12 39 28 41 42 2 13 2 115 -1 228 l-5 205 -60 -5 c-110 -9 -379 -4 -440 9 -148 30 -341 113 -370 158 -11 16 -18 56 -21 116 -3 51 -7 106 -10 123 -4 21 -1 34 10 43 23 20 23 241 0 276 -13 20 -14 31 -5 56 6 18 11 48 11 69 0 79 80 196 159 234 44 20 46 23 51 72 3 28 11 59 19 68 20 24 85 20 162 -9 62 -24 76 -25 220 -23 l154 3 3 601 c1 331 -1 611 -5 622 -5 11 -125 114 -268 228 -433 345 -432 344 -475 344 -34 0 -39 3 -42 27 -5 41 -25 39 -47 -6z"/>
 <path d="M6225 5771 c-3 -2 -5 -97 -5 -210 0 -169 -4 -221 -19 -287 -64 -265 -203 -471 -530 -785 l-151 -144 0 -246 c0 -316 5 -322 131 -188 l76 82 57 -7 c204 -26 461 -157 645 -330 116 -110 252 -281 314 -396 90 -167 91 -167 95 -286 5 -147 -2 -162 -124 -255 -70 -54 -94 -78 -94 -95 0 -57 -46 -90 -114 -80 -46 7 -18 31 -431 -358 -300 -282 -325 -303 -376 -310 -103 -15 -270 30 -469 127 -94 46 -116 62 -205 152 -141 141 -248 312 -305 486 -25 76 -30 107 -30 187 1 82 4 105 25 147 14 29 21 53 16 58 -13 13 -31 -1 -31 -22 0 -31 -74 -99 -122 -111 -85 -23 -150 1 -198 74 l-25 38 -72 -4 c-77 -5 -123 -26 -123 -56 0 -10 13 -58 30 -107 19 -56 26 -92 21 -99 -6 -7 -6 -61 -1 -138 9 -121 8 -129 -15 -188 -60 -153 -167 -308 -273 -396 -82 -67 -219 -137 -327 -165 -49 -13 -127 -23 -201 -26 -169 -8 -289 13 -410 71 -86 41 -97 51 -203 166 -136 151 -176 223 -191 350 -11 86 -27 131 -65 185 -12 17 -29 44 -38 60 -9 17 -32 47 -51 69 l-35 38 -138 -12 c-76 -6 -148 -16 -161 -21 l-22 -9 2 -216 3 -217 54 -17 c29 -10 65 -26 79 -37 56 -42 78 -128 47 -187 -8 -15 -15 -32 -15 -36 0 -4 91 -75 203 -157 172 -128 209 -151 247 -156 103 -13 123 -124 30 -170 -26 -13 -39 -52 -23 -68 5 -5 99 -14 209 -19 441 -22 779 -74 779 -120 0 -42 -407 -90 -772 -90 -104 0 -114 -2 -152 -27 -23 -15 -41 -34 -41 -45 0 -27 -48 -23 -76 7 -14 15 -34 25 -51 25 -20 0 -31 7 -38 22 -8 19 -19 24 -64 26 -66 4 -87 -11 -51 -38 44 -33 333 -178 458 -229 296 -121 600 -199 942 -243 141 -18 659 -18 800 0 521 66 983 222 1411 478 164 98 160 108 -36 83 -302 -38 -608 -48 -692 -23 -81 24 62 91 357 168 147 38 379 87 505 107 97 15 117 24 113 52 -2 14 -14 23 -38 30 -35 8 -60 30 -60 53 0 13 67 57 87 57 7 0 153 82 325 181 l312 181 0 62 c1 73 20 104 87 144 31 18 43 31 42 45 -11 89 -475 3060 -483 3094 -44 181 -52 203 -83 237 -43 46 -109 74 -194 82 -41 4 -76 5 -78 2z"/>
 <path d="M2676 5586 c-17 -10 -151 -104 -299 -209 l-267 -191 2 -625 3 -626 76 -6 c42 -4 99 -12 128 -20 43 -11 70 -11 164 1 62 7 148 16 192 20 67 5 96 14 176 52 53 25 99 51 103 57 4 6 -8 26 -27 45 -41 41 -131 214 -180 346 -74 198 -99 420 -78 673 12 138 12 140 81 309 55 133 68 174 59 185 -16 19 -94 13 -133 -11z"/>
 <path d="M5372 4148 c-16 -16 -43 -26 -89 -33 -49 -7 -69 -15 -77 -30 -50 -90 -141 -207 -214 -275 l-84 -78 7 -244 c4 -137 12 -248 17 -255 27 -33 55 -11 291 225 l237 237 0 226 c0 162 -3 228 -12 237 -19 19 -51 14 -76 -10z"/>
 <path d="M5825 3886 c-43 -19 -59 -43 -58 -86 4 -91 143 -293 384 -557 90 -99 161 -159 250 -214 30 -19 64 -39 75 -46 160 -101 237 -114 280 -48 13 20 16 41 12 96 -6 85 -46 171 -140 301 -220 303 -455 488 -705 553 -67 18 -60 18 -98 1z"/>
 <path d="M3098 3738 c-161 -19 -329 -107 -463 -242 -102 -103 -150 -186 -168 -291 -27 -157 65 -293 231 -341 86 -25 243 -15 352 23 167 57 331 181 420 317 80 121 101 266 52 362 -42 83 -151 159 -244 169 -92 10 -115 11 -180 3z"/>
 <path d="M4670 3611 l-95 -38 -3 -161 -2 -160 42 -24 c23 -12 55 -42 71 -66 l29 -43 34 38 33 38 3 153 c4 257 3 295 -7 298 -5 2 -53 -14 -105 -35z"/>
 <path d="M4208 3504 c-113 -12 -211 -25 -217 -28 -14 -9 -12 -114 3 -148 6 -15 53 -66 104 -113 l92 -85 80 0 80 0 24 38 c13 20 33 46 45 56 19 18 21 29 21 151 0 94 -4 135 -12 142 -8 6 -89 1 -220 -13z"/>
 <path d="M6655 1835 c-148 -85 -281 -167 -296 -181 -26 -24 -29 -56 -8 -70 5 -2 61 3 126 11 l117 17 70 61 c38 34 118 115 178 181 95 104 116 136 89 136 -4 0 -128 -70 -276 -155z"/>
 <path d="M7355 1790 c-10 -17 12 -37 25 -24 8 8 6 15 -4 23 -10 9 -16 9 -21 1z"/>
 <path d="M6815 1226 c-14 -10 -15 -15 -6 -21 8 -4 19 -1 28 8 20 19 1 30 -22 13z"/>
 </g>
<g id="layer2" fill="#000000" stroke="none">
 <path d="M3945 8224 c-16 -2 -79 -9 -140 -15 -344 -34 -757 -141 -1086 -279 -484 -204 -910 -490 -1284 -865 -648 -647 -1032 -1444 -1147 -2375 -18 -142 -18 -738 0 -880 115 -931 499 -1728 1147 -2375 636 -637 1439 -1030 2330 -1140 167 -21 803 -21 970 0 723 89 1392 366 1962 812 109 85 103 80 261 223 625 566 1071 1384 1216 2230 45 263 51 339 51 690 0 351 -6 427 -51 690 -138 802 -522 1539 -1109 2125 -636 637 -1410 1016 -2327 1141 -107 15 -715 29 -793 18z m755 -489 c550 -75 1038 -256 1486 -550 215 -142 468 -355 628 -529 l86 -94 -142 -364 -143 -363 -67 -3 c-54 -2 -71 1 -86 15 -162 153 -191 187 -270 308 -90 139 -163 242 -223 316 l-38 45 95 124 c52 67 101 128 110 134 12 9 14 29 12 91 l-3 80 -45 0 -45 0 -5 -50 c-5 -45 -14 -60 -99 -162 -51 -62 -95 -113 -98 -113 -3 0 -50 42 -104 94 -414 398 -901 603 -1384 583 -344 -14 -623 -130 -858 -356 l-87 -84 -144 6 -144 6 -34 -44 c-18 -24 -35 -44 -38 -45 -3 0 -26 18 -52 41 -46 39 -48 43 -48 94 0 66 -12 75 -98 75 l-58 0 -88 85 c-89 86 -114 99 -145 71 -13 -12 -15 -28 -11 -73 4 -49 8 -58 28 -63 12 -3 63 -36 112 -74 78 -61 88 -72 76 -85 -7 -9 -82 -95 -166 -191 -127 -145 -159 -176 -189 -184 -20 -4 -42 -10 -48 -12 -7 -2 -13 -14 -13 -26 0 -18 -25 -41 -110 -100 -61 -43 -115 -78 -120 -78 -5 0 -10 10 -12 23 -2 17 -11 23 -42 27 l-40 5 -88 200 c-48 110 -95 219 -104 241 l-16 41 55 52 c133 126 357 294 540 405 493 298 1028 464 1612 500 136 8 555 -3 665 -19z m-170 -616 c617 -56 1255 -513 1425 -1022 94 -282 61 -689 -76 -920 -85 -144 -217 -241 -417 -306 -292 -96 -608 -92 -917 10 -229 76 -525 313 -674 539 -167 253 -281 589 -281 826 0 80 23 238 44 306 8 26 39 94 67 150 116 227 323 370 599 413 109 17 96 17 230 4z m-1538 -414 l27 -20 1 -143 c0 -134 1 -144 20 -149 18 -5 17 -9 -16 -74 -30 -61 -38 -69 -63 -69 -30 0 -53 -18 -114 -90 l-37 -44 -53 49 c-28 28 -96 92 -149 144 l-97 95 82 90 c45 50 114 123 152 163 l70 72 75 -2 c57 -2 82 -7 102 -22z m-1188 -275 c90 -241 105 -290 90 -290 -14 -1 -454 212 -454 219 0 22 261 322 271 312 3 -3 45 -112 93 -241z m5264 -79 c36 -48 61 -90 57 -98 -3 -8 -5 -33 -5 -56 l0 -42 -132 -100 c-73 -55 -149 -113 -170 -128 l-37 -28 48 138 c45 128 130 363 147 407 6 16 9 16 18 5 6 -8 39 -52 74 -98z m-4465 -172 c208 -190 197 -176 197 -263 0 -82 4 -77 -87 -121 -27 -12 -33 -21 -33 -48 0 -30 -13 -41 -266 -222 -146 -104 -270 -192 -276 -194 -7 -2 -9 92 -6 313 l4 316 64 65 c74 75 124 97 165 75 22 -12 28 -11 49 9 19 18 24 35 28 95 4 67 12 96 24 96 3 0 64 -54 137 -121z m-1010 0 c325 -161 307 -148 307 -229 0 -44 4 -61 20 -75 18 -17 20 -31 20 -176 l0 -158 -67 -3 -68 -3 -5 -82 -5 -82 -295 244 c-162 134 -294 250 -293 257 1 7 5 26 9 41 5 23 3 29 -15 34 -11 3 -21 9 -21 13 0 20 193 320 205 320 3 0 97 -45 208 -101z m5704 -176 c255 -452 394 -887 449 -1406 20 -187 14 -618 -10 -797 -58 -415 -173 -789 -351 -1140 -81 -158 -184 -332 -195 -325 -12 7 -8 -17 -260 1600 -168 1080 -235 1534 -228 1542 6 7 13 68 17 135 l6 122 205 157 c116 89 214 158 227 159 12 0 32 13 45 29 13 17 26 30 29 30 3 1 33 -47 66 -106z m-1037 -108 c41 -42 42 -45 17 -36 -16 6 -39 11 -53 11 -17 0 -24 6 -24 19 0 11 -4 23 -10 26 -5 3 -10 15 -10 26 0 27 22 14 80 -46z m-3392 -104 c10 -6 7 -24 -17 -82 l-30 -74 0 67 c-1 36 -4 73 -7 82 -5 12 0 16 17 16 13 0 30 -4 37 -9z m-1732 -81 c37 -4 62 -14 95 -40 279 -218 621 -495 629 -510 6 -12 10 -238 10 -614 l0 -596 -148 0 c-134 0 -154 2 -212 25 -90 35 -141 34 -174 -6 -19 -22 -26 -42 -26 -73 0 -39 -3 -43 -34 -54 -73 -27 -176 -174 -176 -252 0 -21 -5 -51 -11 -69 -9 -25 -8 -36 5 -56 23 -35 23 -256 0 -276 -11 -9 -14 -22 -10 -43 3 -17 7 -71 10 -121 7 -127 16 -141 128 -197 106 -52 162 -73 262 -94 91 -20 329 -29 426 -16 41 5 76 9 77 8 1 -1 3 -96 4 -211 2 -196 1 -210 -17 -220 -10 -5 -43 -33 -72 -61 -50 -49 -52 -53 -52 -107 0 -47 5 -62 33 -99 52 -69 106 -93 204 -93 l82 0 201 -150 c156 -117 200 -154 200 -172 0 -26 55 -93 76 -93 8 0 14 -8 14 -19 0 -17 -15 -19 -282 -23 l-283 -5 -95 76 c-121 98 -331 307 -443 441 -447 537 -709 1148 -799 1860 -21 165 -18 671 5 840 47 344 128 641 258 950 43 102 54 120 59 100 5 -22 13 -26 56 -30z m5252 24 c62 -20 117 -64 126 -101 4 -16 11 -45 16 -65 6 -21 15 -57 20 -80 6 -24 120 -740 253 -1593 l243 -1550 -31 -17 c-72 -38 -115 -118 -102 -186 5 -26 -3 -32 -295 -200 -165 -96 -307 -175 -316 -177 -37 -7 -112 -57 -112 -75 0 -28 37 -68 71 -75 45 -10 29 -29 -32 -38 -126 -19 -455 -89 -590 -127 -294 -80 -404 -146 -315 -189 65 -31 350 -25 671 14 66 8 126 15 135 15 24 -1 -99 -75 -264 -161 -382 -197 -764 -314 -1216 -371 -141 -18 -659 -18 -800 0 -454 58 -833 174 -1220 373 -85 44 -159 85 -164 90 -6 5 7 9 35 9 36 0 46 -4 54 -23 7 -14 20 -23 40 -25 17 -2 42 -15 56 -28 35 -34 92 -31 97 4 2 13 14 27 28 32 13 5 24 13 24 18 0 5 105 12 233 15 381 11 627 43 671 86 19 20 19 21 1 41 -22 24 -86 45 -204 65 -117 20 -349 43 -506 50 -248 11 -275 14 -275 36 0 10 6 19 14 19 24 0 76 68 76 100 0 47 -54 100 -110 107 -38 5 -74 27 -235 146 -104 77 -192 142 -194 143 -2 2 4 20 14 40 45 96 -24 211 -148 245 l-37 10 2 207 3 207 143 13 143 14 37 -40 c37 -40 65 -81 107 -157 14 -25 26 -73 33 -127 19 -148 53 -208 222 -389 96 -103 112 -116 195 -155 120 -58 241 -79 409 -71 148 6 250 31 371 91 194 95 351 274 446 506 28 70 28 71 19 197 -5 78 -5 132 1 139 5 7 -2 43 -21 99 -17 49 -30 97 -30 106 0 21 54 39 118 39 40 0 48 -5 89 -50 71 -79 167 -91 250 -31 l38 28 -3 -99 c-3 -83 1 -111 23 -183 54 -177 184 -384 332 -525 84 -81 114 -103 203 -147 197 -96 366 -142 469 -127 51 7 76 28 376 310 413 389 385 365 431 358 68 -10 133 36 135 96 0 19 20 40 91 95 123 94 130 109 126 255 -4 124 -4 122 -95 290 -63 118 -195 283 -324 406 -190 181 -445 313 -655 340 l-57 7 -77 -82 c-42 -44 -84 -81 -93 -81 -15 0 -17 24 -17 246 l0 246 151 146 c329 319 466 522 530 786 15 66 19 118 19 279 l0 197 49 0 c27 0 71 -7 99 -16z m-3588 -148 c0 -2 -31 -80 -70 -174 -69 -169 -69 -171 -81 -309 -21 -253 4 -475 78 -673 46 -125 134 -296 177 -347 l35 -40 -102 -46 c-84 -38 -115 -47 -177 -50 -41 -3 -123 -11 -183 -18 -88 -11 -116 -11 -155 0 -26 7 -80 15 -120 18 l-72 6 2 615 3 616 200 144 c338 242 370 262 421 262 24 0 44 -2 44 -4z m2640 -1663 l0 -228 -227 -227 c-155 -155 -235 -228 -249 -228 -21 0 -22 4 -29 245 l-7 244 85 81 c76 71 207 242 207 268 0 6 29 14 64 17 50 6 70 13 87 31 12 13 33 24 46 24 l23 0 0 -227z m483 -58 c235 -61 446 -219 645 -482 136 -179 181 -271 182 -370 0 -65 -7 -82 -37 -94 -45 -17 -117 8 -237 84 -11 7 -45 27 -75 46 -82 51 -158 114 -231 195 -272 301 -404 503 -383 587 3 12 20 27 37 35 39 17 32 17 99 -1z m-2596 -161 c90 -25 170 -101 193 -183 61 -222 -153 -503 -470 -615 -78 -28 -96 -30 -216 -31 -130 0 -131 0 -199 35 -159 81 -196 237 -104 427 43 87 166 213 265 271 177 105 373 140 531 96z m1436 -291 c-5 -201 -7 -220 -26 -240 l-20 -23 -35 40 c-19 22 -47 47 -63 56 l-29 15 0 149 c0 83 1 150 3 150 1 0 40 16 87 35 47 19 86 34 87 35 1 0 0 -98 -4 -217z m-378 -204 c-19 -21 -35 -44 -35 -49 0 -6 -34 -10 -80 -10 l-80 0 -83 76 c-45 42 -87 88 -93 103 -10 21 -19 129 -11 132 1 0 94 10 207 22 l205 22 3 -128 3 -129 -36 -39z m2525 -1254 c0 -11 -191 -213 -252 -267 l-64 -56 -114 -16 c-90 -13 -115 -13 -122 -3 -4 7 0 19 10 29 13 14 529 317 540 318 1 0 2 -2 2 -5z"/>
 </g>

</svg>